<svg width="192" height="30" viewBox="0 0 192 30" fill="none" xmlns="http://www.w3.org/2000/svg">
<path d="M63.1413 7.16333H59.8535V24.0797H63.1413V7.16333Z" fill="#2A3362"/>
<path d="M75.8648 18.0776C75.8648 20.4123 74.3628 21.4612 72.3628 21.4612C70.3628 21.4612 69.026 20.4123 69.026 18.1959V12.1674H65.7383V18.9592C65.7383 22.3408 67.8587 24.3184 71.3852 24.3184C73.6015 24.3184 74.8403 23.5021 75.6709 22.5796H75.8628L76.1485 24.0816H79.173V12.1674H75.8648V18.0776Z" fill="#2A3362"/>
<path d="M108.117 21.7225C105.71 21.7225 104.353 20.6265 104.139 19.0306H114.574C114.622 18.6988 114.646 18.3639 114.645 18.0286C114.623 13.7429 111.38 11.9286 107.91 11.9286C103.884 11.9286 100.857 14.3368 100.857 18.2204C100.857 21.9123 103.766 24.3184 108.125 24.3184C111.772 24.3184 114.2 22.7 114.702 20.2204H111.453C111.047 21.198 109.88 21.7225 108.117 21.7225ZM107.913 14.5265C110.01 14.5265 111.225 15.4551 111.417 16.7714H104.21C104.519 15.5102 105.735 14.5265 107.902 14.5265H107.913Z" fill="#2A3362"/>
<path d="M120.231 13.8776H120.026L119.716 12.1613H116.729V24.0817H120.016V18.9592C120.016 16.647 121.349 15.3613 123.829 15.3613C124.279 15.355 124.729 15.3947 125.171 15.4796V12.1674H124.712C122.52 12.1674 121.159 12.6204 120.231 13.8776Z" fill="#2A3362"/>
<path d="M141.313 20.3633H141.124L138.311 12.9061H134.928L132.164 20.3408H131.95L129.33 12.1674H126.064L130.091 24.0816H133.666L136.526 16.4796H136.715L139.528 24.0816H143.126L147.152 12.1674H143.887L141.313 20.3633Z" fill="#2A3362"/>
<path d="M160.238 20.6123V16.6245C160.238 13.3837 157.497 11.9307 154.089 11.9307C150.468 11.9307 148.205 13.647 147.895 16.2164H151.182C151.421 15.096 152.374 14.4776 154.089 14.4776C155.803 14.4776 156.946 15.1205 156.946 16.4307V16.7347L151.585 17.1429C149.107 17.3347 147.299 18.4307 147.299 20.7654C147.299 23.1715 149.372 24.3143 152.421 24.3143C154.882 24.3143 156.383 23.6286 157.301 22.5939H157.464C157.98 23.7572 159.027 24.0776 160.166 24.0776H161.548V21.6511H161.238C160.546 21.6511 160.238 21.3184 160.238 20.6123ZM156.948 19.349C156.948 21.2327 154.703 21.8511 152.778 21.8511C151.468 21.8511 150.611 21.5184 150.611 20.6123C150.611 19.796 151.35 19.398 152.448 19.3021L156.95 18.9694L156.948 19.349Z" fill="#2A3362"/>
<path d="M172.394 12.1674L168.557 20.7939H168.343L164.459 12.1674H160.908L166.459 24.0816H170.392L175.918 12.1674H172.394Z" fill="#2A3362"/>
<path d="M186.428 20.2204C186.02 21.198 184.854 21.7225 183.091 21.7225C180.685 21.7225 179.328 20.6265 179.114 19.0306H189.548C189.596 18.6988 189.62 18.3639 189.62 18.0286C189.597 13.7429 186.354 11.9286 182.885 11.9286C178.858 11.9286 175.834 14.3368 175.834 18.2204C175.834 21.9123 178.74 24.3184 183.099 24.3184C186.746 24.3184 189.175 22.7 189.677 20.2204H186.428ZM182.877 14.5265C184.975 14.5265 186.189 15.4551 186.381 16.7714H179.177C179.489 15.5102 180.701 14.5265 182.869 14.5265H182.877Z" fill="#2A3362"/>
<path d="M54.5102 11.2898C54.5102 10.2408 55.249 9.78981 56.2021 9.78981C56.6453 9.79391 57.086 9.85775 57.5123 9.9796L58.0612 7.59593C57.2654 7.31452 56.4278 7.16962 55.5837 7.16736C53.1531 7.16736 51.2 8.45511 51.2 11.1225V12.1674H48.3633V14.7776H51.2V24.0816H54.5102V14.7755H58.2163V12.1674H54.5102V11.2898Z" fill="#2A3362"/>
<path d="M86.4278 8.80811H83.3666L83.1952 12.1673H80.6074V14.7775H83.1339V20.651C83.1339 22.651 84.1544 24.3244 87.2156 24.3244C88.0092 24.3244 88.8004 24.2368 89.5748 24.0632V21.555C89.1283 21.6551 88.673 21.7112 88.2156 21.7224C86.5727 21.7224 86.4299 20.7938 86.4299 20.0775V14.7714H89.6952V12.1673H86.4278V8.80811Z" fill="#2A3362"/>
<path d="M96.7519 8.80811H93.7009L93.5294 12.1673H90.9355V14.7775H93.4621V20.651C93.4621 22.651 94.4825 24.3244 97.5437 24.3244C98.3355 24.322 99.1246 24.2323 99.8968 24.0571V21.555C99.4503 21.6551 98.995 21.7112 98.5376 21.7224C96.8947 21.7224 96.7519 20.7938 96.7519 20.0775V14.7714H100.027V12.1673H96.7519V8.80811Z" fill="#2A3362"/>
<path d="M2.59766 6.71226C2.59766 4.80002 3.15684 3.16737 4.33031 1.9939L6.37113 4.03471C4.0997 6.29798 6.08337 13.3347 12.5507 19.8082C19.0181 26.2816 26.0589 28.2633 28.3283 25.9959L30.3691 28.0368C26.5405 31.8653 17.8201 29.149 10.5201 21.847C5.45684 16.7817 2.59766 11.0347 2.59766 6.71226Z" fill="#009A46"/>
<path d="M15.4665 29.7959C13.5543 29.7959 11.9216 29.2367 10.7461 28.0632L12.7869 26.0224C15.0543 28.2897 22.091 26.3061 28.5645 19.8346C35.0379 13.3632 37.0175 6.32647 34.7502 4.05913L36.791 2.01831C40.6216 5.84688 37.9032 14.5673 30.6012 21.8673C25.5359 26.9387 19.789 29.7959 15.4665 29.7959Z" fill="#FF5805"/>
<path d="M31.2778 18.947C30.0391 15.3796 27.5084 11.5674 24.1513 8.21226C16.8513 0.910219 8.13089 -1.80815 4.30232 2.02246C4.03089 2.29593 4.26558 2.97144 4.82885 3.53471C5.39211 4.09798 6.06762 4.33063 6.33905 4.0592C8.60844 1.79185 15.6452 3.77553 22.1166 10.249C25.1778 13.3102 27.4595 16.7286 28.5595 19.8919C29.5227 22.6653 29.4288 24.9021 28.3064 26.0245C28.0329 26.2959 28.2697 26.9735 28.8309 27.5347C29.3921 28.0959 30.0697 28.3327 30.3431 28.0592C32.3044 26.098 32.637 22.8572 31.2778 18.947Z" fill="#F5AFCB"/>
<path d="M36.7863 2.02241C34.821 0.0570994 31.5843 -0.275554 27.67 1.08567C24.1047 2.32241 20.2904 4.85506 16.9353 8.21016C9.63532 15.5102 6.91696 24.2306 10.7455 28.0612C11.019 28.3326 11.6945 28.0979 12.2578 27.5367C12.821 26.9755 13.0557 26.2979 12.7823 26.0244C10.5088 23.7571 12.4986 16.7204 18.9721 10.2469C22.0333 7.18567 25.4517 4.90404 28.6149 3.80404C31.3884 2.84281 33.6251 2.93465 34.7496 4.0571C35.021 4.32853 35.6986 4.09383 36.2598 3.53057C36.821 2.9673 37.0578 2.29383 36.7863 2.02241Z" fill="#FF9B00"/>
</svg>
